HIERARCHY
ROOT Hips
{
	OFFSET -14.64140 90.27770 -84.91600
	CHANNELS 6 Xposition Yposition Zposition Zrotation Xrotation Yrotation
	JOINT Spine
	{
		OFFSET 0.00000 13.20850 -1.60436
		CHANNELS 3 Zrotation Xrotation Yrotation
		JOINT Spine1
		{
			OFFSET 0.00000 8.61716 0.00000
			CHANNELS 3 Zrotation Xrotation Yrotation
			JOINT Spine2
			{
				OFFSET 0.00000 8.61717 0.00000
				CHANNELS 3 Zrotation Xrotation Yrotation
				JOINT Spine3
				{
					OFFSET 0.00000 8.61717 0.00000
					CHANNELS 3 Zrotation Xrotation Yrotation
					JOINT Neck
					{
						OFFSET 0.00000 11.07920 1.10792
						CHANNELS 3 Zrotation Xrotation Yrotation
						JOINT Neck1
						{
							OFFSET 0.00000 7.08032 0.00000
							CHANNELS 3 Zrotation Xrotation Yrotation
							JOINT Head
							{
								OFFSET 0.00000 7.08031 0.00000
								CHANNELS 3 Zrotation Xrotation Yrotation
								End site
								{
									OFFSET 0.00000 0.00000 0.00000
								}
							}
						}
					}
					JOINT RightShoulder
					{
						OFFSET -0.01000 7.91373 5.19711
						CHANNELS 3 Zrotation Xrotation Yrotation
						JOINT RightArm
						{
							OFFSET -18.41580 0.00000 0.00000
							CHANNELS 3 Zrotation Xrotation Yrotation
							JOINT RightForeArm
							{
								OFFSET -29.11090 0.00000 0.00000
								CHANNELS 3 Zrotation Xrotation Yrotation
								JOINT RightHand
								{
									OFFSET -24.65040 0.00000 0.00000
									CHANNELS 3 Zrotation Xrotation Yrotation
									JOINT RightHandThumb1
									{
										OFFSET -5.35114 -0.85590 3.97906
										CHANNELS 3 Zrotation Xrotation Yrotation
										JOINT RightHandThumb2
										{
											OFFSET -4.52789 0.00000 0.00000
											CHANNELS 3 Zrotation Xrotation Yrotation
											JOINT RightHandThumb3
											{
												OFFSET -2.46976 0.00000 0.00000
												CHANNELS 3 Zrotation Xrotation Yrotation
												End site
												{
													OFFSET 0.00000 0.00000 0.00000
												}
											}
										}
									}
									JOINT RightHandIndex1
									{
										OFFSET -14.26970 0.00000 2.88139
										CHANNELS 3 Zrotation Xrotation Yrotation
										JOINT RightHandIndex2
										{
											OFFSET -5.48836 0.00000 0.00000
											CHANNELS 3 Zrotation Xrotation Yrotation
											JOINT RightHandIndex3
											{
												OFFSET -3.01859 0.00000 0.00000
												CHANNELS 3 Zrotation Xrotation Yrotation
												End site
												{
													OFFSET 0.00000 0.00000 0.00000
												}
											}
										}
									}
									JOINT RightHandMiddle1
									{
										OFFSET -14.26970 0.00000 -0.09147
										CHANNELS 3 Zrotation Xrotation Yrotation
										JOINT RightHandMiddle2
										{
											OFFSET -6.17441 0.00000 0.00000
											CHANNELS 3 Zrotation Xrotation Yrotation
											JOINT RightHandMiddle3
											{
												OFFSET -3.56743 0.00000 0.00000
												CHANNELS 3 Zrotation Xrotation Yrotation
												End site
												{
													OFFSET 0.00000 0.00000 0.00000
												}
											}
										}
									}
									JOINT RightHandRing1
									{
										OFFSET -12.69180 0.00000 -3.06433
										CHANNELS 3 Zrotation Xrotation Yrotation
										JOINT RightHandRing2
										{
											OFFSET -5.62556 0.00000 0.00000
											CHANNELS 3 Zrotation Xrotation Yrotation
											JOINT RightHandRing3
											{
												OFFSET -3.56744 0.00000 0.00000
												CHANNELS 3 Zrotation Xrotation Yrotation
												End site
												{
													OFFSET 0.00000 0.00000 0.00000
												}
											}
										}
									}
									JOINT RightHandPinky1
									{
										OFFSET -11.11390 0.00000 -6.03719
										CHANNELS 3 Zrotation Xrotation Yrotation
										JOINT RightHandPinky2
										{
											OFFSET -4.52789 0.00000 0.00000
											CHANNELS 3 Zrotation Xrotation Yrotation
											JOINT RightHandPinky3
											{
												OFFSET -2.46976 0.00000 0.00000
												CHANNELS 3 Zrotation Xrotation Yrotation
												End site
												{
													OFFSET 0.00000 0.00000 0.00000
												}
											}
										}
									}
								}
							}
						}
					}
					JOINT LeftShoulder
					{
						OFFSET 0.01000 7.91373 5.19711
						CHANNELS 3 Zrotation Xrotation Yrotation
						JOINT LeftArm
						{
							OFFSET 18.41580 0.00000 0.00000
							CHANNELS 3 Zrotation Xrotation Yrotation
							JOINT LeftForeArm
							{
								OFFSET 29.11090 0.00000 0.00000
								CHANNELS 3 Zrotation Xrotation Yrotation
								JOINT LeftHand
								{
									OFFSET 24.65040 0.00000 0.00000
									CHANNELS 3 Zrotation Xrotation Yrotation
									JOINT LeftHandThumb1
									{
										OFFSET 5.35114 -0.85590 3.97906
										CHANNELS 3 Zrotation Xrotation Yrotation
										JOINT LeftHandThumb2
										{
											OFFSET 4.52789 0.00000 0.00000
											CHANNELS 3 Zrotation Xrotation Yrotation
											JOINT LeftHandThumb3
											{
												OFFSET 2.46977 0.00000 0.00000
												CHANNELS 3 Zrotation Xrotation Yrotation
												End site
												{
													OFFSET 0.00000 0.00000 0.00000
												}
											}
										}
									}
									JOINT LeftHandIndex1
									{
										OFFSET 14.26970 0.00000 2.88139
										CHANNELS 3 Zrotation Xrotation Yrotation
										JOINT LeftHandIndex2
										{
											OFFSET 5.48836 0.00000 0.00000
											CHANNELS 3 Zrotation Xrotation Yrotation
											JOINT LeftHandIndex3
											{
												OFFSET 3.01859 0.00000 0.00000
												CHANNELS 3 Zrotation Xrotation Yrotation
												End site
												{
													OFFSET 0.00000 0.00000 0.00000
												}
											}
										}
									}
									JOINT LeftHandMiddle1
									{
										OFFSET 14.26970 0.00000 -0.09147
										CHANNELS 3 Zrotation Xrotation Yrotation
										JOINT LeftHandMiddle2
										{
											OFFSET 6.17440 0.00000 0.00000
											CHANNELS 3 Zrotation Xrotation Yrotation
											JOINT LeftHandMiddle3
											{
												OFFSET 3.56744 0.00000 0.00000
												CHANNELS 3 Zrotation Xrotation Yrotation
												End site
												{
													OFFSET 0.00000 0.00000 0.00000
												}
											}
										}
									}
									JOINT LeftHandRing1
									{
										OFFSET 12.69180 0.00000 -3.06433
										CHANNELS 3 Zrotation Xrotation Yrotation
										JOINT LeftHandRing2
										{
											OFFSET 5.62556 0.00000 0.00000
											CHANNELS 3 Zrotation Xrotation Yrotation
											JOINT LeftHandRing3
											{
												OFFSET 3.56744 0.00000 0.00000
												CHANNELS 3 Zrotation Xrotation Yrotation
												End site
												{
													OFFSET 0.00000 0.00000 0.00000
												}
											}
										}
									}
									JOINT LeftHandPinky1
									{
										OFFSET 11.11390 0.00000 -6.03719
										CHANNELS 3 Zrotation Xrotation Yrotation
										JOINT LeftHandPinky2
										{
											OFFSET 4.52789 0.00000 0.00000
											CHANNELS 3 Zrotation Xrotation Yrotation
											JOINT LeftHandPinky3
											{
												OFFSET 2.46976 0.00000 0.00000
												CHANNELS 3 Zrotation Xrotation Yrotation
												End site
												{
													OFFSET 0.00000 0.00000 0.00000
												}
											}
										}
									}
								}
							}
						}
					}
					JOINT pCube4
					{
						OFFSET 0.00000 10.91090 1.10792
						CHANNELS 3 Zrotation Xrotation Yrotation
						End site
						{
							OFFSET 0.00000 0.00000 0.00000
						}
					}
				}
			}
		}
	}
	JOINT RightUpLeg
	{
		OFFSET -9.98441 0.00000 0.00000
		CHANNELS 3 Zrotation Xrotation Yrotation
		JOINT RightLeg
		{
			OFFSET 0.00000 -42.11790 0.00000
			CHANNELS 3 Zrotation Xrotation Yrotation
			JOINT RightFoot
			{
				OFFSET 0.00000 -45.00020 -0.00001
				CHANNELS 3 Zrotation Xrotation Yrotation
				JOINT RightForeFoot
				{
					OFFSET 0.00000 -3.74820 0.00000
					CHANNELS 3 Zrotation Xrotation Yrotation
					JOINT RightToeBase
					{
						OFFSET 0.00000 0.06325 14.43120
						CHANNELS 3 Zrotation Xrotation Yrotation
						End site
						{
							OFFSET 0.00000 0.00000 0.00000
						}
					}
				}
			}
		}
	}
	JOINT LeftUpLeg
	{
		OFFSET 9.98441 0.00000 0.00000
		CHANNELS 3 Zrotation Xrotation Yrotation
		JOINT LeftLeg
		{
			OFFSET 0.00000 -42.11800 0.00000
			CHANNELS 3 Zrotation Xrotation Yrotation
			JOINT LeftFoot
			{
				OFFSET 0.00000 -45.00070 0.00000
				CHANNELS 3 Zrotation Xrotation Yrotation
				JOINT LeftForeFoot
				{
					OFFSET 0.00000 -3.74824 0.00000
					CHANNELS 3 Zrotation Xrotation Yrotation
					JOINT LeftToeBase
					{
						OFFSET 0.00000 0.06325 14.43110
						CHANNELS 3 Zrotation Xrotation Yrotation
						End site
						{
							OFFSET 0.00000 0.00000 0.00000
						}
					}
				}
			}
		}
	}
}
MOTION
Frames: 4
Frame Time: 0.050000
-0.029992612909756966 -0.03515764906257286 0.028687454652386004 0.00650820937226731 -0.02645197812055318 0.0027745993194997804 -2.2203278793756502 1.0448868732702228 -0.8356227966442265 -1.1178299110897811 3.9571271606077283 0.3446351953127528 -1.1512552908881661 -1.9134071414025546 -1.992147414956406 -0.009858070982529485 0.5693763350883069 -0.8842356556301756 -1.023172696621599 13.400644167433153 2.5945205821651576 0.06395319535371581 -0.13048567316666104 5.605500169321953 -0.6498916555950325 -15.359929970995744 0.5055050842638085 -4.915322199966628 1.6741262003985782 -15.98876247720751 73.03040539130531 16.60493879999305 -4.707977210252405 4.931067482508214 -1.9325426350057648 43.068642425851166 20.212053497394592 -0.135121255040234 -2.5663174134490996 4.541246103868005 -0.16711079051575467 -1.585555406280313 0.04136873446811872 -0.014709641151954058 -56.235940458425205 0.0017686919683180546 0.025056951361547505 -56.242625848368554 -38.73761392052124 -0.03405604352878809 0.021044721996394032 0.03768137769904882 0.034254110239288205 0.038291644050029605 -0.026842809202593146 0.048909093525430415 0.041124572346169584 -36.71697250405585 0.01618889519026563 0.019661233653096 0.0008479326743047533 0.025108957338997755 -0.0037703609391771765 -0.011596219326387514 -0.035642578172714635 -0.04829145062189187 -19.750099637913216 -0.022548980070541246 0.010788506392645955 -0.031045155359247466 0.007636853946408567 0.004583870058684431 -0.02292731524201001 0.013358221429145932 0.014094326980729465 24.07603824879678 -0.000800191878309082 -0.024665679494686142 28.851821765340066 0.01352007387369185 -0.027899959976446228 28.905110370245772 0.044674940463941486 0.024209848483265385 8.263510599638662 1.7120698368311744 14.219179368007135 -69.14078365296152 18.536823947812078 -10.823074095003138 -1.6792317581119074 -17.689062704243334 -61.90676412812786 -6.579813188200796 -0.512591435472352 1.4727709596149494 -0.4928130352169594 0.08761694822625497 -8.12084125273879 0.033095542631705804 -0.005102288160801286 44.597066213668825 -0.00855034819397906 -0.016446576969185313 44.58086923608715 12.4967976108398 -0.022070464995386854 0.011080741360206908 0.04130076880537316 -0.041437510274124324 -0.042689350880754276 0.03231426168212534 -0.014687192274895667 0.019541364871981663 11.145725291688567 0.010318741180448983 0.008497383285772875 -0.012404113555009548 0.012839401892085472 0.03559264992361351 -0.01995539141747131 0.014205731738592374 0.014693219203684051 4.79577604509593 0.03882267069431546 0.03363933100139696 -0.006134102802389019 0.001242200987733415 -0.021343724990203008 -0.008822719677298198 -0.008942274665015994 0.04597607601547289 -5.589118317444276 -0.015539651506267975 -0.025362277376354506 -6.68977036743524 -0.013477409951895067 -0.046483988156307415 -6.745718488652548 -0.04270696519968524 0.019269342553836874 -0.04319783451923885 0.008974743374102383 0.011327315914930426 8.080591456765143 3.542451385202852 -19.210245555642622 -0.014877906920032958 10.346199051601149 -0.03396234459902937 -5.654720901353792 -15.674748972058927 3.1507552314419627 0.015610029875236374 -0.029497766744732225 -0.01527754950140123 0.013394737713716711 4.719249914005158 -0.030280018481739477 12.4308591530944 -8.268653831690465 6.866378043620105 -0.006870752606776582 46.38737629770292 -0.01710830261187055 -4.35444790740461 -14.75173009859529 -3.8792078288003253 -0.01658625067334823 0.0092393409782932 -0.02658097241190394 0.037113322920058124 -10.695561719216757 0.011571223154977169 
0.019826706219484097 0.006379430383013779 -0.02643105077677385 -0.0016516644650856256 -0.011141892152685292 -0.02662645635724918 -2.24656399335939 1.1075366372724185 -0.8388419751437725 -1.1565348008559229 3.8920028409072733 0.4029654884673548 -1.1892880773513714 -1.8996041357497542 -1.8280125485336713 -0.04846756702366738 0.5461725722179566 -0.919971129320467 -1.0919752399659337 13.269513448768626 2.8883411032126647 -1.7078679359201288e-05 -0.25045024500559704 6.10418609326931 -0.7284748523336678 -15.48704156178602 0.5341760898305038 -4.720765292298633 1.6503685092763412 -16.072046577173715 73.06864839060646 17.18660198927237 -5.63058598350546 5.286675654671846 -2.0595527394792152 42.31347762335471 20.16804068742834 -0.07897431072259753 -2.667006185125912 4.510575028475881 -0.15827791439076555 -1.6205986447694871 0.024766173743718013 0.02983958519639836 -56.25027123517684 -0.0008636328689471177 0.03506685245900647 -56.283058146950154 -38.78942411521426 0.02320764378964132 0.006686272732741571 -0.0421920102265544 0.00425205910117471 -0.03743665699025243 0.033215724656705595 0.0457806177117684 -0.008822510165115665 -36.71463967616987 -0.03787616256906038 -0.039360402405704015 -0.004755109003587057 0.0013893137262902394 -0.044869091560629876 0.011136673674052449 0.03570786002698451 0.01479084758887162 -19.77425078247316 -0.026566706913682236 -0.02034775365289983 -0.014164477519829475 -0.013585753615537871 -0.044478749105522714 -0.004390937052795653 0.049967737797917744 0.020234730685046155 24.0427608866637 0.03644891735327513 0.005304730532363959 28.85068226684396 -0.013014466105819947 -0.003963544179972775 28.892853975492255 0.048368570556702635 0.039143080688498116 7.892297559933968 1.6790889663506934 14.323193747396815 -70.19024781451876 19.33590983170155 -8.750956401365285 -2.0292743629237115 -17.375118122611383 -61.810605078209285 -7.069250120355365 -0.6790410899688057 1.5400094709809247 -0.5083801443350255 0.06268495372434035 -8.09881389915186 0.042069697827943814 0.022744710393652556 44.59105175311281 -0.03644914452648565 -0.011320840345282324 44.56028290102915 12.422465614202002 -0.049927022281973696 -0.011648863119076768 0.021052017085566744 -0.022840327111054968 0.018629704643379534 -0.015371320607864199 0.04202310298937482 -0.037973650526747345 11.06818803413294 -0.03344510508653265 0.00010825719818951805 0.028164285509044856 -0.04843977853309871 -0.03670627755171719 -0.02132139048578189 0.0033590481423834647 -0.016278460152796624 4.760877941990345 -0.01982252084338462 0.029552896560941854 0.032672318402049705 -0.006246910627425512 -0.025866923664092354 0.007255053917279889 -0.028669574821075603 -0.017570660145493945 -5.591254468232285 -0.002636977783491087 0.01269164999017946 -6.721326399696976 0.03760250117251826 0.004168768471053114 -6.7121922936682195 0.04502578735732737 -0.0022216881909247867 0.020242445930938095 -0.034923030451511274 -0.019253929963476923 8.04306995007152 3.5214034796730065 -19.191614529104527 0.03909945281191687 10.352331929485054 0.0213757380344098 -5.669757908387136 -15.676153718413545 3.152522454026866 -0.02571223880094151 0.010173280391889554 -0.036650977660406044 -0.03680284507095444 4.746630214268649 0.024014683423976838 12.446864107658863 -8.242226147743954 6.862960313374525 -0.033289591508206456 46.369900061370195 0.035089852336652495 -4.341669338452576 -14.765180391608748 -3.820876120122361 0.04629367397647061 -0.009421701711329649 0.011076427830447615 -0.022650570170732548 -10.721049990818884 -0.011113665298672692 
0.037406301752563625 -0.0022388190503127223 -0.004053036338859033 0.04222232413916925 -0.036312623717813394 -0.0035352291147776904 -2.1732986709883635 1.0969628234292836 -0.8673415314987717 -1.18959708756895 3.8960984723404333 0.4028377783244006 -1.122494929338933 -1.8253619645077805 -1.770563643651139 -0.06662881931942888 0.5504603460504334 -0.8698631721113387 -1.2507821289003616 13.165434642225602 3.0988120571348743 -0.021663089309670293 -0.3074861484464957 6.504046802810476 -0.9016345012900638 -15.512078967974048 0.52980401834209 -4.5115328880714545 1.5689083971334865 -16.079362266254943 73.06832296659151 17.91488538063104 -6.276333813062304 4.86276410176764 -2.1442391828101255 41.75880845995801 20.119961102230146 -0.14169454996661895 -2.835432284546986 4.538109466849267 -0.16082784484312657 -1.6309471982532164 -0.003740429234779626 0.024527401085261736 -56.25975484766325 -0.021356446999129815 0.01976517595475196 -56.249738447121196 -38.79013177459769 0.0015578396890369062 0.014071134712111091 0.003922902385769083 -0.014822514831329198 0.03540826907762156 0.023263690528504567 0.02283661713796296 0.028695665256823127 -36.7311968173442 0.007410364135748606 -0.0023013664469284053 -0.01436704538231536 -0.04358465945671693 -0.02573947394040677 0.008375433683092529 -0.008636013866472204 0.004963133664702238 -19.793219150196393 -0.04023918936860743 0.021560559085895437 0.011693607933504161 0.018282623990116435 0.04548249034686825 -0.04434451516656215 -0.003249127440858908 -0.008352570113221857 24.060633690244014 0.006444058532886935 0.02050976113186007 28.83559950758975 0.030417044919331598 0.01342089746970054 28.9114951974654 0.026597750720329095 -0.028857079121828406 7.841977692206113 1.6756042839532614 14.39957991072339 -70.4315573211854 19.728324854192344 -8.415403327973696 -0.08113554358430579 -18.036557555238335 -64.3480116610588 -6.83371654739394 -1.0824106583509094 1.637004652053801 -0.47482224074890567 0.08430495987785869 -8.094321650645453 -0.03085962874179531 0.013232196521012195 44.598924909773466 -0.03098848854329475 0.009792321878782626 44.59573522409918 12.424438020774788 -0.016856162607215962 0.001980733924485613 -0.004862504026394164 0.009803980477591089 0.027295126033266785 -0.007419218897068521 0.008352906265006229 0.025990116036099818 11.098564930353955 -0.011358820300120193 -0.02733405196761792 -0.004022126694223447 0.036684982486405095 0.044981661021694506 0.023135368046750395 0.006817344235563567 0.04477692167813021 4.809316990059272 -0.008978312784004202 0.00920529330724837 -0.008155534763793515 -0.017612660101999366 0.03820664995322236 -0.03966063981417629 -0.039717063681636786 0.03190014917702707 -5.643638736967431 -0.03598690697820145 -0.028066354634660118 -6.730615355751257 0.049037157675238245 0.0043937519200238535 -6.711401672450474 -0.032253801069255454 0.02007102437307338 -0.019772001640132295 0.027342528535433414 -0.029559756576441266 8.005931572949256 3.45622336142324 -19.250193498186114 0.045038787552576204 10.34948424418822 0.02360613153738686 -5.597326898640024 -15.668220774425283 3.2021785529154494 -0.04434936811141104 -0.03610795642873036 0.044050568056390446 -0.033594425855332746 4.665665731689975 -0.01682259777584338 12.40965585991531 -8.253685179881783 6.851205463975923 -0.009571955599485905 46.39459808220646 0.0037314800217418936 -4.295910510433831 -14.763267310500925 -3.7965054246279584 -0.033394288705527964 -0.04138076081908295 0.0160322760979601 0.028602491417874593 -10.756760072273018 0.027056676757905795 
0.03706162172014249 -0.04798357055717342 0.012264193427840159 -0.031186395046077703 -0.019432336665866693 0.0011867733513696833 -2.169378622153047 1.06959585731612 -0.9040604070754452 -1.111555821837918 3.945082830889485 0.4058550618136249 -1.1524904901532311 -1.823787544145937 -1.8009836798746026 -0.010987265277860092 0.5179378521713046 -0.8822316989863034 -1.2209746638766499 13.083516830863976 3.100126015054906 -0.11646278581769857 -0.33396455765908845 6.528578294214438 -0.9001920195823175 -15.645216999406745 0.5257046033239025 -4.353907047213082 1.5726055999696893 -16.034234635743587 72.9164837150244 18.08594912818177 -6.35578616441605 5.250940909552574 -1.9347635571460096 42.20285151575868 20.05197719055707 -0.1284635500610089 -2.938367044222508 4.52182492898382 -0.12153667427998376 -1.6234163942395166 0.004777716158937957 -0.009628207719829153 -56.196031623724316 0.04335714108100132 0.02976079880782926 -56.203600435113486 -38.761076560443044 0.014281876032139719 0.047339420912219134 -0.011610316886915287 0.00959180823605092 -0.014510006624469027 -0.03801024099639104 -0.03629502947555523 -0.03381311559678101 -36.667387387394974 -0.0166910313678957 -0.046672924208541 0.015672888472992346 -0.009058772540537262 -0.011309097736855381 -0.003437528005655223 0.0035221617351005826 0.011783072678963344 -19.75806197714121 -0.02729896611257869 -0.030849892322980518 0.016772902419894334 -0.013048081293150663 -0.0068687259053424946 0.033377006267458875 -0.013818432550239332 -0.0014397826041098332 24.03261484191931 -0.04598778804270285 -0.03407843569528307 28.853329149818737 0.010581782058737133 0.04681939735833109 28.87101544563615 0.02951149584647661 0.006937323348416334 7.873097921596691 1.6689348120953815 14.418909642191789 -70.13236216996579 19.479434343404026 -8.987524678131505 0.9123967501410702 -18.327584040390242 -67.46154479192447 -6.29374933209926 -1.2536682406692436 1.4495761933889695 -0.5044107222305008 0.07542054307728599 -8.131505490162066 -0.023285249129641295 -3.6564690245571757e-06 44.57621065483121 0.006916352703887055 -0.03053442591040661 44.52351034233093 12.503477558949628 0.02091167273588848 -0.0452726037378166 -0.009507617334614379 -0.004252715696127873 0.024121079939928528 -0.04289103946025565 -0.015024188293415206 0.017396435645669044 11.117997497181843 0.016939152519876637 -0.03554839180384428 -0.03942485517910773 0.0012181154615226223 0.049132839542216776 -0.009233807433918809 -0.04077429068791188 -0.015849178004073823 4.771002386049346 0.037417916404489326 0.004435983804503583 -0.009915023398233688 0.034252455335220706 0.025873682688393615 0.04707637675652833 0.02118462731463685 -0.045359551749341406 -5.636110961707883 -0.03194338256282891 0.01318523636148593 -6.727295483776675 0.028192948135483512 0.029078253951278492 -6.721242032605765 -0.04546236015964797 -0.0034176362570350212 0.035767327593061726 0.02399229258142563 -0.026591953938567933 8.063963459481737 3.504329647734008 -19.257681732594882 -0.03823222525926246 10.41060847458801 0.03808958186320477 -5.5796203699920826 -15.689505286301246 3.196226961304462 0.019605275916788734 -0.02424446295840246 0.008169264332056728 0.012537914925709439 4.688444888105872 0.041324031483119555 12.416831785405238 -8.255015125137678 6.836838669313706 -0.022711711514523395 46.344239327123795 -0.017434067351676893 -4.34762034810138 -14.761282724155155 -3.818384513195697 -0.01842016773840765 -0.03938871019592149 -0.03516711911710281 -0.015129789021977097 -10.733664383825708 0.00833489164158526 
